<svg width="44" height="36" viewBox="0 0 44 36" fill="none" xmlns="http://www.w3.org/2000/svg">
<path d="M0 0H38C41.3137 0 44 2.68629 44 6V30C44 33.3137 41.3137 36 38 36H0V0Z" fill="white"/>
<g clip-path="url(#clip0_279_92)">
<rect x="13" y="12" width="18" height="12" rx="2" fill="#EE343C"/>
<path fill-rule="evenodd" clip-rule="evenodd" d="M13 24H31V20H13V24Z" fill="#12833B"/>
<rect x="13" y="12" width="3" height="12" fill="#F3F3F3"/>
<rect x="13" y="13" width="1" height="1" fill="#EE343C"/>
<rect x="13" y="15" width="1" height="1" fill="#EE343C"/>
<rect x="13" y="17" width="1" height="1" fill="#EE343C"/>
<rect x="13" y="19" width="1" height="1" fill="#EE343C"/>
<rect x="13" y="21" width="1" height="1" fill="#EE343C"/>
<rect x="13" y="23" width="1" height="1" fill="#EE343C"/>
<rect x="14" y="12" width="1" height="1" fill="#EE343C"/>
<rect x="14" y="14" width="1" height="1" fill="#EE343C"/>
<rect x="14" y="16" width="1" height="1" fill="#EE343C"/>
<rect x="14" y="18" width="1" height="1" fill="#EE343C"/>
<rect x="14" y="20" width="1" height="1" fill="#EE343C"/>
<rect x="14" y="22" width="1" height="1" fill="#EE343C"/>
<rect x="15" y="13" width="1" height="1" fill="#EE343C"/>
<rect x="15" y="15" width="1" height="1" fill="#EE343C"/>
<rect x="15" y="17" width="1" height="1" fill="#EE343C"/>
<rect x="15" y="19" width="1" height="1" fill="#EE343C"/>
<rect x="15" y="21" width="1" height="1" fill="#EE343C"/>
<rect x="15" y="23" width="1" height="1" fill="#EE343C"/>
</g>
<defs>
<clipPath id="clip0_279_92">
<rect x="13" y="12" width="18" height="12" rx="2" fill="white"/>
</clipPath>
</defs>
</svg>
