<svg width="332" height="41" viewBox="0 0 332 41" fill="none" xmlns="http://www.w3.org/2000/svg">
<path d="M18.5341 40.8478C6.9503 40.8478 0 36.2143 0 20.3359C0 5.07915 6.9503 0.163086 18.5341 0.163086C29.1574 0.163086 35.7121 3.89252 36.6727 14.5157H25.0889C24.6368 10.1082 22.1506 9.20413 18.5341 9.20413C14.5787 9.20413 11.5838 10.1647 11.5838 17.002V23.8958C11.5838 30.7331 14.4657 31.8067 18.5341 31.8067C22.0941 31.8067 24.5238 30.7331 25.1454 26.3821H36.7292C35.5991 36.8923 29.1574 40.8478 18.5341 40.8478Z" fill="white"/>
<path d="M49.5818 1.01068H65.9687L78.0046 40.0002H66.0817L63.8215 32.5413H50.0339L47.8301 40.0002H37.5459L49.5818 1.01068ZM56.9277 9.65619L52.5767 24.0653H61.2787L56.9277 9.65619Z" fill="white"/>
<path d="M114.038 27.5122C114.038 37.3444 107.765 40.8478 97.1422 40.8478C86.519 40.8478 80.0773 37.1184 79.7382 27.3427H91.3221C91.4351 31.2982 93.6953 32.0893 97.1422 32.0893C100.815 32.0893 103.132 31.4677 103.132 28.3033C103.132 21.4095 80.3598 29.377 80.3598 12.651C80.3598 3.66649 86.632 0.163086 96.6337 0.163086C106.635 0.163086 113.19 3.66649 113.36 12.651H101.776C101.606 9.54317 99.6285 8.9216 96.6337 8.9216C93.3563 8.9216 91.209 9.54317 91.209 12.538C91.209 19.0363 114.038 12.1425 114.038 27.5122Z" fill="white"/>
<path d="M130.693 40.0002H119.392V1.01068H130.693V40.0002Z" fill="white"/>
<path d="M153.031 1.01068L163.541 25.5345V1.01068H173.995V40.0002H158.456L147.946 15.5329V40.0002H137.492V1.01068H153.031Z" fill="white"/>
<path d="M219.462 19.9404C219.462 36.1577 212.229 40.8478 199.402 40.8478C186.575 40.8478 179.342 36.1577 179.342 19.9404C179.342 4.74012 186.575 0.163086 199.402 0.163086C212.229 0.163086 219.462 4.74012 219.462 19.9404ZM207.878 23.2178V17.6801C207.878 11.1254 204.996 9.20413 199.402 9.20413C193.808 9.20413 190.926 11.1254 190.926 17.6801V23.2178C190.926 30.3941 193.808 31.8067 199.402 31.8067C204.996 31.8067 207.878 30.3941 207.878 23.2178Z" fill="white"/>
<path d="M258.465 28.4164C258.465 35.7623 254.058 40.0003 245.243 40.0003H224.844V1.01074H245.808C253.21 1.01074 257.561 4.34463 257.561 10.5038C257.561 14.2333 256.035 17.7367 251.006 19.3754C256.487 20.8445 258.465 24.2349 258.465 28.4164ZM246.881 27.0037C246.881 24.8565 245.243 23.5568 242.417 23.5568H235.863V32.0893H242.417C245.243 32.0893 246.881 30.8462 246.881 28.5859V27.0037ZM245.977 11.973C245.977 10.0518 244.452 8.92166 241.909 8.92166H235.863V16.324H241.909C244.452 16.324 245.977 15.1939 245.977 13.1031V11.973Z" fill="#FFF500"/>
<path d="M293.192 40.0003H263.526V1.01074H293.136V10.3343H274.828V15.4199H288.446V24.461H274.828V30.6767H293.192V40.0003Z" fill="#FFF500"/>
<path d="M331.447 10.6169H319.637V40.0003H308.336V10.6169H296.583V1.01074H331.447V10.6169Z" fill="#FFF500"/>
</svg>
